<?xml version="1.0" encoding="UTF-8"?>
<svg xmlns="http://www.w3.org/2000/svg" viewBox="0 0 57.04 57.04">
  <defs>
    <style>
      .cls-1 {
        isolation: isolate;
      }

      .cls-2 {
        fill: #d15a30;
      }

      .cls-2, .cls-3, .cls-4, .cls-5, .cls-6 {
        stroke-width: 0px;
      }

      .cls-3 {
        fill: #ebb559;
      }

      .cls-4, .cls-6 {
        fill: #6e6659;
      }

      .cls-5 {
        fill: #564b44;
      }

      .cls-6 {
        mix-blend-mode: multiply;
        opacity: .5;
      }
    </style>
  </defs>
  <g class="cls-1">
    <g id="Layer_2" data-name="Layer 2">
      <g id="Capa_1" data-name="Capa 1">
        <g>
          <path class="cls-2" d="m22.57,47.98h0C33.84,33.44,57.04,0,57.04,0c0,0-33.44,23.2-47.98,34.47h0s-1.69-4.63.54-9.84c0,0-13.91,13.91-8.25,24.91,0,0,0,0,0,0,.5,1.38,1.28,2.67,2.38,3.77,1.1,1.1,2.4,1.89,3.77,2.38,0,0,0,0,0,0,11,5.66,24.91-8.25,24.91-8.25-5.21,2.23-9.84.54-9.84.54Z"/>
          <path class="cls-3" d="m16.39,51.27c-2.93,2.93-7.68,2.93-10.61,0-2.93-2.93-2.93-7.68,0-10.61,2.93-2.93,32.35-21.74,32.35-21.74,0,0-18.8,29.42-21.74,32.35Z"/>
          <path class="cls-2" d="m39.35,43.48c-1.38,1.38-3.61,1.38-4.98,0-1.38-1.38-1.38-3.61,0-4.98,1.38-1.38,15.19-10.21,15.19-10.21,0,0-8.83,13.81-10.21,15.19Z"/>
          <path class="cls-2" d="m26.04,17.03c-1.38,1.38-3.61,1.38-4.98,0-1.38-1.38-1.38-3.61,0-4.98,1.38-1.38,15.19-10.21,15.19-10.21,0,0-8.83,13.81-10.21,15.19Z"/>
          <g>
            <path class="cls-4" d="m12.58,51.41h0c.07-.13.2-.22.34-.25.51-.13,1.01-.33,1.47-.61.13-.07.27-.1.42-.06h0c.95.26,1.82-.62,1.57-1.57h0c-.04-.14-.01-.29.06-.42.27-.47.48-.96.61-1.47.04-.14.12-.26.25-.34h0c.85-.49.85-1.73,0-2.22h0c-.13-.07-.21-.2-.25-.34-.13-.51-.33-1.01-.61-1.47-.07-.13-.1-.27-.06-.42h0c.25-.95-.62-1.82-1.57-1.57h0c-.14.04-.29.01-.42-.06-.47-.27-.96-.48-1.47-.61-.14-.04-.26-.12-.34-.25h0c-.49-.86-1.72-.86-2.22,0h0c-.07.13-.2.22-.34.25-.51.13-1.01.33-1.47.61-.13.07-.27.1-.42.06h0c-.95-.26-1.82.62-1.57,1.57h0c.04.14.01.29-.06.42-.27.47-.48.96-.61,1.47-.04.14-.12.26-.25.34h0c-.85.49-.85,1.73,0,2.22h0c.13.07.21.2.25.34.13.51.33,1.01.61,1.47.07.13.1.27.06.42h0c-.26.95.62,1.82,1.57,1.57h0c.14-.04.29-.01.42.06.47.27.96.48,1.47.61.14.04.26.12.34.25h0c.49.86,1.72.86,2.22,0Z"/>
            <path class="cls-5" d="m12.95,45.64c-.53.53-1.38.53-1.91,0-.53-.53-.53-1.38,0-1.91.53-.53,1.38-.53,1.91,0,.53.53.53,1.38,0,1.91Z"/>
            <path class="cls-5" d="m12.37,50.36c-.53.53-1.38.53-1.91,0s-.53-1.38,0-1.91c.53-.53,1.38-.53,1.91,0,.53.53.53,1.38,0,1.91Z"/>
            <path class="cls-5" d="m14.84,42.62c-.28.28-.74.28-1.02,0-.28-.28-.28-.74,0-1.02s.74-.28,1.02,0c.28.28.28.74,0,1.02Z"/>
            <path class="cls-5" d="m9.22,43.33c-.28.28-.74.28-1.02,0s-.28-.74,0-1.02c.28-.28.74-.28,1.02,0,.28.28.28.74,0,1.02Z"/>
            <path class="cls-5" d="m9.09,47.47c-.5.5-1.31.5-1.81,0-.5-.5-.5-1.31,0-1.81.5-.5,1.31-.5,1.81,0,.5.5.5,1.31,0,1.81Z"/>
            <path class="cls-5" d="m16.05,46.83c-.28.28-.74.28-1.02,0-.28-.28-.28-.74,0-1.02.28-.28.74-.28,1.02,0,.28.28.28.74,0,1.02Z"/>
            <path class="cls-6" d="m16.38,48.92h0c-.04-.14-.01-.29.06-.42.27-.47.48-.96.61-1.47,0-.01,0-.02.01-.03-.7.83-2.87,3.01-5.92,2.26-3.73-.92-5.01-4.35-5.24-5.12-.04.14-.12.26-.25.34h0c-.85.49-.85,1.73,0,2.22h0c.13.07.21.2.25.34.13.51.33,1.01.61,1.47.07.13.1.27.06.42h0c-.25.95.62,1.82,1.57,1.57.14-.04.29-.01.42.06.47.27.96.48,1.47.61.14.04.26.12.34.25h0c.49.86,1.72.86,2.22,0h0c.07-.13.2-.22.34-.25.51-.13,1.01-.33,1.47-.61.13-.07.27-.1.42-.06h0c.95.26,1.82-.62,1.57-1.57Z"/>
          </g>
        </g>
      </g>
    </g>
  </g>
</svg>