<?xml version="1.0" encoding="UTF-8"?>
<svg xmlns="http://www.w3.org/2000/svg" viewBox="0 0 116.37 86.76">
  <defs>
    <style>
      .cls-1 {
        isolation: isolate;
      }

      .cls-2 {
        mix-blend-mode: overlay;
      }

      .cls-3 {
        fill: #8de1fd;
        stroke-width: 0px;
      }
    </style>
  </defs>
  <g class="cls-1">
    <g id="Layer_2" data-name="Layer 2">
      <g id="Objects">
        <g class="cls-2">
          <path class="cls-3" d="m63.1,51.54c-9.15,5.52-18.81,6.36-21.52,1.86-2.71-4.5,2.53-12.65,11.68-18.17,9.15-5.52,18.81-6.36,21.52-1.86,2.71,4.5-2.53,12.65-11.68,18.17Zm-9.42-15.62c-8.38,5.05-13.18,12.52-10.69,16.63,2.48,4.12,11.32,3.35,19.7-1.7,8.38-5.06,13.18-12.52,10.69-16.63-2.48-4.12-11.32-3.35-19.7,1.7Z"/>
          <path class="cls-3" d="m66.01,56.35c-14.55,8.78-29.9,10.11-34.22,2.95-4.31-7.15,4.02-20.11,18.57-28.89,14.55-8.78,29.9-10.11,34.22-2.96,4.31,7.15-4.02,20.11-18.57,28.89Zm-14.99-24.84c-13.32,8.04-20.95,19.9-17,26.45,3.95,6.55,18,5.33,31.33-2.71,13.32-8.04,20.95-19.9,17-26.45-3.95-6.55-18-5.33-31.33,2.71Z"/>
          <path class="cls-3" d="m68.91,61.16c-19.95,12.04-41,13.86-46.92,4.05-5.92-9.8,5.51-27.57,25.46-39.61,19.95-12.04,41-13.86,46.92-4.05,5.91,9.8-5.51,27.57-25.46,39.61Zm-20.55-34.06c-18.27,11.02-28.73,27.29-23.31,36.27,5.42,8.98,24.68,7.31,42.95-3.71,18.27-11.02,28.73-27.29,23.31-36.27-5.42-8.98-24.68-7.31-42.95,3.71Z"/>
          <path class="cls-3" d="m71.81,65.97c-25.36,15.3-52.1,17.61-59.61,5.15-7.52-12.46,7-35.04,32.35-50.33,25.36-15.3,52.1-17.61,59.61-5.15,7.52,12.46-7,35.04-32.35,50.34Zm-26.11-43.28c-23.21,14-36.5,34.68-29.62,46.08,6.88,11.41,31.36,9.29,54.58-4.71s36.5-34.68,29.62-46.08c-6.88-11.41-31.36-9.29-54.58,4.71Z"/>
          <path class="cls-3" d="m74.72,70.79c-30.76,18.56-63.2,21.36-72.31,6.24C-6.71,61.92,10.89,34.53,41.65,15.98,72.41-2.58,104.84-5.38,113.96,9.73c9.12,15.11-8.49,42.5-39.24,61.06Zm-31.67-52.5C14.89,35.28-1.23,60.35,7.12,74.19c8.35,13.83,38.04,11.27,66.2-5.72,28.16-16.99,44.27-42.06,35.93-55.9C100.9-1.26,71.2,1.3,43.05,18.29Z"/>
        </g>
      </g>
    </g>
  </g>
</svg>