<?xml version="1.0" encoding="UTF-8"?>
<svg xmlns="http://www.w3.org/2000/svg" xmlns:xlink="http://www.w3.org/1999/xlink" viewBox="0 0 257.78 88.08">
  <defs>
    <style>
      .cls-1 {
        fill: url(#Degradado_sin_nombre_31-3);
      }

      .cls-1, .cls-2, .cls-3, .cls-4, .cls-5, .cls-6, .cls-7, .cls-8, .cls-9, .cls-10, .cls-11, .cls-12, .cls-13 {
        stroke-width: 0px;
      }

      .cls-2 {
        fill: url(#Degradado_sin_nombre_3);
      }

      .cls-14 {
        isolation: isolate;
      }

      .cls-3 {
        fill: #1285a2;
      }

      .cls-4 {
        fill: url(#Degradado_sin_nombre_31-2);
      }

      .cls-5 {
        fill: #281c4b;
      }

      .cls-6 {
        fill: url(#Degradado_sin_nombre_4);
      }

      .cls-7 {
        fill: url(#Degradado_sin_nombre_31);
      }

      .cls-8, .cls-10 {
        fill: #dcdde0;
      }

      .cls-9 {
        fill: #5a9cd4;
      }

      .cls-10, .cls-13, .cls-15 {
        mix-blend-mode: multiply;
      }

      .cls-11 {
        fill: #f9fafd;
      }

      .cls-12 {
        fill: url(#Degradado_sin_nombre_5);
      }

      .cls-13 {
        fill: #cacbce;
      }
    </style>
    <linearGradient id="Degradado_sin_nombre_5" data-name="Degradado sin nombre 5" x1="0" y1="44.7" x2="117.65" y2="44.7" gradientUnits="userSpaceOnUse">
      <stop offset="0" stop-color="#fee62a"/>
      <stop offset=".14" stop-color="#fcd82a"/>
      <stop offset=".4" stop-color="#f9b42c"/>
      <stop offset=".75" stop-color="#f37a2e"/>
      <stop offset=".99" stop-color="#ef4e31"/>
    </linearGradient>
    <linearGradient id="Degradado_sin_nombre_3" data-name="Degradado sin nombre 3" x1="43.8" y1="44.71" x2="117.25" y2="44.71" gradientUnits="userSpaceOnUse">
      <stop offset="0" stop-color="#f5e55e"/>
      <stop offset="1" stop-color="#da9231"/>
    </linearGradient>
    <linearGradient id="Degradado_sin_nombre_4" data-name="Degradado sin nombre 4" x1="63.65" y1="44.71" x2="117.07" y2="44.71" gradientUnits="userSpaceOnUse">
      <stop offset="0" stop-color="#f5ea91"/>
      <stop offset="1" stop-color="#da9231"/>
    </linearGradient>
    <linearGradient id="Degradado_sin_nombre_31" data-name="Degradado sin nombre 31" x1="-154.19" y1="-1302.21" x2="-154.19" y2="-1276.45" gradientTransform="translate(-1106.35 207.58) rotate(89.61)" gradientUnits="userSpaceOnUse">
      <stop offset="0" stop-color="#fff"/>
      <stop offset=".07" stop-color="#fff" stop-opacity=".85"/>
      <stop offset=".21" stop-color="#fff" stop-opacity=".6"/>
      <stop offset=".35" stop-color="#fff" stop-opacity=".38"/>
      <stop offset=".47" stop-color="#fff" stop-opacity=".22"/>
      <stop offset=".58" stop-color="#fff" stop-opacity=".1"/>
      <stop offset=".68" stop-color="#fff" stop-opacity=".03"/>
      <stop offset=".74" stop-color="#fff" stop-opacity="0"/>
    </linearGradient>
    <linearGradient id="Degradado_sin_nombre_31-2" data-name="Degradado sin nombre 31" x1="-153.38" y1="-1323.09" x2="-153.38" y2="-1308.74" xlink:href="#Degradado_sin_nombre_31"/>
    <linearGradient id="Degradado_sin_nombre_31-3" data-name="Degradado sin nombre 31" x1="-155.14" y1="-1266.34" x2="-155.14" y2="-1252" xlink:href="#Degradado_sin_nombre_31"/>
  </defs>
  <g class="cls-14">
    <g id="Layer_2" data-name="Layer 2">
      <g id="Objects">
        <g>
          <g>
            <path class="cls-12" d="m116.59,30.54c-22.13-3.14-44.68-35.67-89.77-6.35,11.04-3.25,25.33-4.55,36.19,2.78C56.6,26.7,37.81,21.97,0,44.7h0,0s0,0,0,0h0c37.81,22.73,56.6,18,63,17.72-10.86,7.33-25.15,6.03-36.19,2.78,45.09,29.32,67.64-3.21,89.77-6.35v-28.32Z"/>
            <path class="cls-2" d="m43.8,43.96s28.67-19.97,72.79-13.42v28.32s-39.95,7.93-72.79-14.9Z"/>
            <path class="cls-6" d="m63.65,44.22s20.85-13.17,52.94-8.85v18.67s-29.05,5.23-52.94-9.83Z"/>
          </g>
          <g>
            <path class="cls-11" d="m257.69,43.94h0l-.75.02.75-.04h0C219.31,10.6,165.25,2.18,118.56,22.26l-8.31,3.57c-1.65,2.72-5.22,9.42-5.19,18.67.03,9.26,3.66,15.94,5.33,18.64,2.78,1.17,5.56,2.34,8.34,3.51,46.84,19.72,100.84,10.89,138.96-22.72Z"/>
            <path class="cls-3" d="m120.55,21.45c-.66.27-1.33.53-1.99.81l-8.31,3.57c-1.65,2.72-5.23,9.42-5.19,18.67.03,9.26,3.66,15.94,5.33,18.64,2.78,1.17,5.56,2.34,8.34,3.51.66.28,1.33.53,2,.8-2.28-3.88-6.28-12.01-6.31-22.99-.04-10.97,3.88-19.12,6.14-23.02Z"/>
            <path class="cls-9" d="m230.25,44.03c.03,6.85,1.87,12.53,3.76,16.56,8.37-4.61,16.32-10.17,23.67-16.65l-.75.02.74-.04h0c-7.4-6.43-15.4-11.92-23.8-16.47-1.85,4.03-3.63,9.66-3.63,16.42,0,.05,0,.1,0,.16Z"/>
            <g>
              <path class="cls-10" d="m257.69,43.94l-.74.02.75-.04h0c-.11-.1-.23-.19-.34-.29l-152.29.58c0,.1,0,.19,0,.29.03,9.26,3.66,15.94,5.33,18.64,2.78,1.17,5.56,2.34,8.34,3.51,46.84,19.72,100.84,10.89,138.96-22.72Z"/>
              <g class="cls-15">
                <path class="cls-13" d="m257.78,43.88l-.74.02.74-.04h0c-.11-.1-.23-.19-.34-.29-13.91,8.13-38.54,20.18-71.63,24.56-32.96,4.36-59.79-.82-75.33-5.04,2.78,1.17,5.56,2.34,8.34,3.51,46.84,19.72,100.84,10.89,138.96-22.72Z"/>
              </g>
            </g>
            <g>
              <g>
                <path class="cls-5" d="m165.75,44.76c-.03-7.04,5.68-12.79,12.72-12.82,7.04-.03,12.79,5.68,12.82,12.72.03,7.04-5.68,12.79-12.72,12.82-7.04.03-12.79-5.68-12.82-12.72Z"/>
                <path class="cls-3" d="m189.77,44.67c.02,6.21-4.99,11.27-11.21,11.29-6.21.02-11.27-4.99-11.29-11.21-.02-6.21,4.99-11.27,11.21-11.29,6.21-.02,11.27,4.99,11.29,11.21m3.04-.01c-.03-7.88-6.46-14.26-14.34-14.23-7.88.03-14.26,6.46-14.23,14.34.03,7.88,6.46,14.26,14.34,14.23,7.88-.03,14.26-6.46,14.23-14.34h0Z"/>
              </g>
              <path class="cls-7" d="m178.43,36.56c4.47-.03,8.12,3.57,8.15,8.04.03,4.47-3.57,8.12-8.04,8.15-4.47.03-8.12-3.57-8.15-8.04-.03-4.47,3.57-8.12,8.04-8.15Z"/>
            </g>
            <g>
              <g>
                <path class="cls-5" d="m199.44,45.33c-.02-3.92,3.16-7.12,7.08-7.14,3.92-.01,7.12,3.16,7.14,7.08.02,3.92-3.16,7.12-7.08,7.14-3.92.02-7.12-3.16-7.14-7.08Z"/>
                <path class="cls-3" d="m212.82,45.28c.01,3.46-2.78,6.28-6.24,6.29-3.46.01-6.28-2.78-6.29-6.24-.01-3.46,2.78-6.28,6.24-6.29,3.46-.01,6.28,2.78,6.29,6.24m1.69,0c-.02-4.39-3.6-7.94-7.99-7.93-4.39.02-7.94,3.6-7.93,7.99.02,4.39,3.6,7.94,7.99,7.93,4.39-.02,7.94-3.6,7.93-7.99h0Z"/>
              </g>
              <path class="cls-4" d="m206.51,40.77c2.49-.02,4.52,1.99,4.54,4.48.02,2.49-1.99,4.52-4.48,4.54-2.49.02-4.52-1.99-4.54-4.48-.02-2.49,1.99-4.52,4.48-4.54Z"/>
            </g>
            <g>
              <g>
                <path class="cls-5" d="m142.69,43.95c-.02-3.92,3.16-7.12,7.08-7.14,3.92-.01,7.12,3.16,7.14,7.08.01,3.92-3.16,7.12-7.08,7.14-3.92.02-7.12-3.16-7.14-7.08Z"/>
                <path class="cls-3" d="m156.07,43.9c.01,3.46-2.78,6.28-6.24,6.29-3.46.01-6.28-2.78-6.29-6.24-.01-3.46,2.78-6.28,6.24-6.29,3.46-.01,6.28,2.78,6.29,6.24m1.69,0c-.02-4.39-3.6-7.94-7.99-7.93-4.39.02-7.94,3.6-7.93,7.99.02,4.39,3.6,7.94,7.99,7.93,4.39-.02,7.94-3.6,7.93-7.99h0Z"/>
              </g>
              <path class="cls-1" d="m149.76,39.39c2.49-.02,4.52,1.99,4.54,4.48.02,2.49-1.99,4.52-4.48,4.54-2.49.02-4.52-1.99-4.54-4.48-.02-2.49,1.99-4.52,4.48-4.54Z"/>
            </g>
            <path class="cls-9" d="m123.49,20.23c5.17-1.83,11.01-3.59,17.46-5.08,7.58-1.75,14.59-2.78,20.81-3.38-4.03-2.15-8.07-4.31-12.1-6.46-9.68-5.17-20.92-6.63-31.6-4.11l-21.36,5.03,26.79,13.99Z"/>
            <g class="cls-15">
              <path class="cls-8" d="m124.91,19.54c4.42-1.56,9.4-3.07,14.92-4.34,6.47-1.49,12.46-2.38,17.77-2.88-3.45-1.84-6.89-3.68-10.34-5.52-8.27-4.42-17.87-5.67-26.99-3.51l-18.25,4.3,22.89,11.95Z"/>
            </g>
            <path class="cls-9" d="m122.34,67.77c5.14,1.91,10.95,3.77,17.38,5.37,7.55,1.87,14.54,3.02,20.75,3.72-4.07,2.09-8.14,4.17-12.21,6.26-9.77,5.01-21.02,6.28-31.66,3.59l-21.27-5.39,27.02-13.55Z"/>
            <g class="cls-15">
              <path class="cls-8" d="m124.51,68.85c4.58,1.7,9.75,3.36,15.48,4.78,6.72,1.67,12.95,2.69,18.48,3.32-3.62,1.86-7.25,3.72-10.87,5.58-8.7,4.46-18.73,5.6-28.21,3.2l-18.95-4.8,24.07-12.07Z"/>
            </g>
          </g>
        </g>
      </g>
    </g>
  </g>
</svg>