<?xml version="1.0" encoding="UTF-8"?>
<svg id="Layer_2" data-name="Layer 2" xmlns="http://www.w3.org/2000/svg" viewBox="0 0 26.14 24.85">
  <defs>
    <style>
      .cls-1 {
        fill: #70ecff;
        stroke-width: 0px;
      }
    </style>
  </defs>
  <g id="BACKGROUND2">
    <path class="cls-1" d="m25.62,12.93c-3.29-.5-6.75-1.38-9.17-3.82-2.24-2.26-3.03-5.41-3.5-8.46,0-.05,0-.09,0-.14-.01-.09-.05-.16-.1-.23-.01-.02-.03-.04-.04-.06-.02-.02-.04-.05-.07-.07-.04-.03-.07-.05-.11-.07-.04-.02-.08-.03-.12-.04,0,0-.01,0-.02,0-.02,0-.04-.02-.06-.02,0,0-.01,0-.02,0-.2-.04-.38.07-.51.22-.01.01-.02.03-.04.04-.03.04-.05.08-.07.13-.01.03-.02.06-.03.09,0,.02-.02.04-.02.06,0,.03,0,.06,0,.09,0,.02,0,.04,0,.07,0,.01,0,.02,0,.03-.27,2.25-1.02,4.59-1.9,6.67-1.64,3.88-5.39,5.11-9.35,5.41-.7.05-.62,1.13.04,1.2,5.9.64,10.39,4.57,11.81,10.34.16.64,1.13.67,1.2-.04.58-6.27,5.63-10.66,11.95-10.19.78.06.89-1.09.12-1.2Z"/>
  </g>
</svg>