<?xml version="1.0" encoding="UTF-8"?>
<svg xmlns="http://www.w3.org/2000/svg" viewBox="0 0 89.31 89.38">
  <defs>
    <style>
      .cls-1 {
        mix-blend-mode: screen;
      }

      .cls-1, .cls-2, .cls-3, .cls-4 {
        stroke-width: 0px;
      }

      .cls-1, .cls-3, .cls-4 {
        fill: #75dfff;
      }

      .cls-1, .cls-4 {
        opacity: .5;
      }

      .cls-5 {
        isolation: isolate;
      }

      .cls-2 {
        fill: #3fd29b;
      }

      .cls-4 {
        mix-blend-mode: multiply;
      }
    </style>
  </defs>
  <g class="cls-5">
    <g id="Layer_2" data-name="Layer 2">
      <g id="BACKGROUND1">
        <g>
          <path class="cls-3" d="m87.63,31.5c-.04-.18-.09-.37-.15-.56-5.24-15.66-17.14-26.59-33.53-29.64-8.95-1.67-18.11-2.13-26.75,1.11-8.51,3.2-15.97,9.17-20.88,16.84-10.07,15.72-7.44,36.37,3.31,51.01,11.88,16.19,33.59,23.81,52.5,16.07,20.69-8.47,31.62-33.62,25.52-54.84Z"/>
          <g>
            <path class="cls-2" d="m34.54,13.89c2.35.65,5.51,1.47,5.5,3.91,0,1-.61,1.87-.96,2.8-.86,2.28-.15,4.92,1.25,6.91,1.4,2,3.39,3.48,5.36,4.93.49.36,1.05.74,1.64.64,1.05-.18,1.29-1.53,1.43-2.58.21-1.53.72-3.01,1.5-4.34.25-.43.57-.88,1.04-1.04.63-.23,1.31.1,1.97.2,1.68.25,3.24-1.05,4.07-2.53.83-1.48,1.19-3.19,1.95-4.71,2.24-4.44,7.54-6.56,10.2-10.75-4.57-2.89-9.78-4.95-15.56-6.03-8.95-1.67-18.11-2.13-26.75,1.11-.82.31-1.63.65-2.43,1.01,1.49,4.9,4.92,9.14,9.78,10.48Z"/>
            <path class="cls-2" d="m30.22,75.4c.49-2.81-.52-6.04-3.01-7.45-1-.57-2.19-.82-3.07-1.58-3.12-2.7.46-8.43-1.95-11.77-2.12-2.95-7.04-1.73-9.88-3.99-.87-.69-1.47-1.66-2.25-2.45-2.37-2.41-6.17-2.91-9.45-2.12-.12.03-.24.07-.37.11.9,8.62,4.18,17.07,9.36,24.12,4.15,5.65,9.5,10.26,15.51,13.54.34-.33.66-.67.97-1.02,1.91-2.12,3.63-4.56,4.13-7.38Z"/>
            <path class="cls-2" d="m72.53,50.64c.02,2.02,1.3,3.97.9,5.95-.99,4.87-9.99,3.91-11.24,8.72-.83,3.19,2.68,6.55,1.35,9.57-.64,1.44-2.22,2.27-2.89,3.69-.9,1.89.16,4.26,1.84,5.5.66.49,1.39.84,2.15,1.12,15.73-7.78,25.14-25.47,24.65-42.85-2.54.99-5.56,1.08-8.33,1.47-3.92.56-8.46,2.88-8.43,6.84Z"/>
          </g>
          <path class="cls-1" d="m36.81,30.76C50.3,21.2,48.46,1.76,47.94.39c-7-.78-14.03-.5-20.75,2.02-8.51,3.2-15.97,9.17-20.88,16.84-2.71,4.22-4.49,8.8-5.45,13.53,2.42,4.03,22.46,7.53,35.95-2.02Z"/>
          <path class="cls-1" d="m66.23,15.57c3.11-.54,5.49-2.81,7.2-5.42-4.84-3.94-10.6-6.79-17.13-8.35-.75,6.83,1.95,15.15,9.93,13.77Z"/>
          <path class="cls-4" d="m87.63,31.5c-.04-.18-.09-.37-.15-.56-2.17-6.48-5.48-12.14-9.77-16.78,2.46,4.75,4.04,9.93,4.57,15.34,1.69,17.36-7.67,34.73-23.81,41.81-10.87,4.77-23.73,5.15-35.19,2.56-4.98-1.12-10.17-2.82-14.8-5.25.37.55.75,1.1,1.15,1.64,11.88,16.19,33.59,23.81,52.5,16.07,20.69-8.47,31.62-33.62,25.52-54.84Z"/>
        </g>
      </g>
    </g>
  </g>
</svg>