<?xml version="1.0" encoding="UTF-8"?>
<svg xmlns="http://www.w3.org/2000/svg" xmlns:xlink="http://www.w3.org/1999/xlink" viewBox="0 0 80 48.38">
  <defs>
    <style>
      .cls-1 {
        fill: url(#Degradado_sin_nombre_260);
      }

      .cls-1, .cls-2, .cls-3, .cls-4, .cls-5, .cls-6, .cls-7 {
        stroke-width: 0px;
      }

      .cls-1, .cls-4 {
        mix-blend-mode: overlay;
      }

      .cls-8 {
        isolation: isolate;
      }

      .cls-9 {
        opacity: .49;
      }

      .cls-9, .cls-10 {
        mix-blend-mode: multiply;
      }

      .cls-2 {
        fill: #c4c4c4;
      }

      .cls-3 {
        fill: none;
      }

      .cls-4 {
        fill: url(#Degradado_sin_nombre_101);
        opacity: .7;
      }

      .cls-11 {
        clip-path: url(#clippath);
      }

      .cls-5 {
        fill: #5a9cd4;
      }

      .cls-6 {
        fill: url(#Degradado_sin_nombre_5);
      }

      .cls-10 {
        opacity: .53;
      }

      .cls-7 {
        fill: url(#Degradado_sin_nombre_6);
      }
    </style>
    <linearGradient id="Degradado_sin_nombre_260" data-name="Degradado sin nombre 260" x1="25.1" y1="8.16" x2="60.8" y2="45.43" gradientTransform="translate(58.33 -19.43) rotate(81.4)" gradientUnits="userSpaceOnUse">
      <stop offset="0" stop-color="#fff"/>
      <stop offset=".07" stop-color="#fff" stop-opacity=".89"/>
      <stop offset=".22" stop-color="#fff" stop-opacity=".66"/>
      <stop offset=".36" stop-color="#fff" stop-opacity=".46"/>
      <stop offset=".5" stop-color="#fff" stop-opacity=".29"/>
      <stop offset=".64" stop-color="#fff" stop-opacity=".16"/>
      <stop offset=".77" stop-color="#fff" stop-opacity=".07"/>
      <stop offset=".89" stop-color="#fff" stop-opacity=".02"/>
      <stop offset="1" stop-color="#fff" stop-opacity="0"/>
    </linearGradient>
    <clipPath id="clippath">
      <circle class="cls-3" cx="40.64" cy="24.19" r="19.52"/>
    </clipPath>
    <linearGradient id="Degradado_sin_nombre_6" data-name="Degradado sin nombre 6" x1="28.25" y1="11.26" x2="57.06" y2="41.33" gradientUnits="userSpaceOnUse">
      <stop offset="0" stop-color="#61c6f2"/>
      <stop offset=".17" stop-color="#57bbeb"/>
      <stop offset=".46" stop-color="#3f9eda"/>
      <stop offset=".83" stop-color="#1870bd"/>
      <stop offset=".89" stop-color="#1269b9"/>
    </linearGradient>
    <linearGradient id="Degradado_sin_nombre_101" data-name="Degradado sin nombre 101" x1="54.26" y1="-7.26" x2="60.75" y2="4.51" gradientTransform="translate(-26.72 23.02) rotate(-3.56) scale(1.09 1.18)" gradientUnits="userSpaceOnUse">
      <stop offset="0" stop-color="#fff"/>
      <stop offset=".1" stop-color="#fff" stop-opacity=".93"/>
      <stop offset=".29" stop-color="#fff" stop-opacity=".76"/>
      <stop offset=".57" stop-color="#fff" stop-opacity=".49"/>
      <stop offset=".9" stop-color="#fff" stop-opacity=".12"/>
      <stop offset="1" stop-color="#fff" stop-opacity="0"/>
    </linearGradient>
    <linearGradient id="Degradado_sin_nombre_5" data-name="Degradado sin nombre 5" x1="0" y1="26.22" x2="80" y2="26.22" gradientUnits="userSpaceOnUse">
      <stop offset="0" stop-color="#fee62a"/>
      <stop offset=".14" stop-color="#fcd82a"/>
      <stop offset=".4" stop-color="#f9b42c"/>
      <stop offset=".75" stop-color="#f37a2e"/>
      <stop offset=".99" stop-color="#ef4e31"/>
    </linearGradient>
  </defs>
  <g class="cls-8">
    <g id="Layer_2" data-name="Layer 2">
      <g id="Objects">
        <g>
          <circle class="cls-1" cx="40.46" cy="24.19" r="24.19" transform="translate(10.49 60.58) rotate(-81.4)"/>
          <g>
            <g class="cls-11">
              <circle class="cls-7" cx="40.64" cy="24.19" r="19.52"/>
              <g class="cls-10">
                <path class="cls-5" d="m47.54,4.06c.84,3.34-.59,7.12-3.42,9.08-2.18,1.5-5.06,2-6.81,3.98-1.29,1.45-1.73,3.44-2.09,5.35-.36,1.91-.7,3.9-1.86,5.46-1.15,1.56-3.4,2.51-5.09,1.56-1.45-.81-1.96-2.65-2-4.31s.27-3.35-.11-4.96c-.28-1.2-.93-2.28-1.52-3.37-.59-1.09-1.14-2.24-1.2-3.47-.13-2.5,1.04-4.38,3.13-5.67,1.76-1.09,4.25-2.45,6.19-3.01-.4,1-1.19,1.81-1.4,2.94-.21,1.14.22,2.48,1.28,2.94.83.37,1.8.12,2.63-.26,2.62-1.19,4.63-3.65,5.28-6.45l6.98.2Z"/>
                <path class="cls-5" d="m49.84,9.02c-.8,1.39-1.11,3.02-1.52,4.58-.41,1.56-.98,3.17-2.16,4.24-1.29,1.19-3.1,1.55-4.63,2.39-1.63.89-3.16,2.98-3.41,7.31-.18,3.12,2.91,5.34,5.7,4.1,7.26-3.23,16.73-10.91,13.23-22.25-1.04-3.37-5.09-4.07-7.22-.38Z"/>
                <path class="cls-5" d="m19.36,18.73c1.29-.5,2.15.01,2.76,1.25.61,1.24.59,2.68.61,4.06.07,4.4,1.58,8.74,5.81,10.75,2.92,1.39,6.04,2.24,9.28,2.32,9.37.22,20.42-7.43,21.57-17.17.09-.73.35-2.01.07-2.7,2.11,5.41,2.6,9.17.06,14.39-1.05,2.15-2.64,4-4.64,5.3-13.87,9.06-25.64,3.91-28.56,1.75-2.92-2.16-4.51-5.45-5.78-8.86-1.26-3.41-1.74-7.36-1.19-11.08Z"/>
              </g>
            </g>
            <path class="cls-4" d="m45,10.34c-2.31-2.96-8.12-1.77-12.99,2.67-4.87,4.44-6.95,10.44-4.64,13.4,2.31,2.96,8.12,1.77,12.99-2.67,4.87-4.44,6.95-10.44,4.64-13.4Z"/>
            <g class="cls-9">
              <path class="cls-2" d="m46.11,5.45c5.87,3.36,9.83,9.69,9.83,16.94,0,10.78-8.74,19.52-19.52,19.52-1.9,0-3.73-.28-5.46-.78,2.85,1.63,6.16,2.57,9.68,2.57,10.78,0,19.52-8.74,19.52-19.52,0-8.88-5.93-16.37-14.05-18.74Z"/>
            </g>
          </g>
          <g>
            <path class="cls-3" d="m59.83,28.17c5.34-.58,8.67-1.38,8.67-2.27s-3.16-1.66-8.27-2.23c0,.16.02.32.02.48,0,1.38-.15,2.72-.42,4.02Z"/>
            <path class="cls-3" d="m21.28,23.51c-5.99.58-9.78,1.43-9.78,2.39s3.97,1.85,10.21,2.43c-.29-1.35-.46-2.74-.46-4.18,0-.22.03-.42.03-.64Z"/>
            <path class="cls-3" d="m21.28,23.51c0,.21-.03.42-.03.64,0,1.44.17,2.83.46,4.18,4.95.46,11.33.74,18.29.74,7.71,0,14.7-.34,19.83-.89.27-1.3.42-2.64.42-4.02,0-.16-.02-.32-.02-.48-5.16-.58-12.32-.94-20.23-.94-7.17,0-13.71.29-18.72.78Z"/>
            <path class="cls-3" d="m22.51,31c2.78,7.39,9.88,12.65,18.24,12.65s15.54-5.32,18.28-12.76c-5.66.43-12.14.68-19.03.68-6.27,0-12.21-.2-17.49-.57Z"/>
            <path class="cls-3" d="m59.97,20.99c-1.51-9.26-9.53-16.34-19.22-16.34s-17.64,7.02-19.2,16.22c5.52-.41,11.8-.64,18.45-.64,7.28,0,14.09.28,19.97.76Z"/>
            <path class="cls-6" d="m59.97,20.99c.14.88.23,1.77.25,2.68,5.11.57,8.27,1.36,8.27,2.23s-3.33,1.7-8.67,2.27c-5.13.55-12.12.89-19.83.89-6.96,0-13.34-.28-18.29-.74-6.24-.58-10.21-1.45-10.21-2.43s3.79-1.81,9.78-2.39c.03-.9.12-1.78.26-2.64-12.8.94-21.55,2.84-21.55,5.03s9.18,4.18,22.51,5.1c5.28.36,11.22.57,17.49.57,6.89,0,13.37-.25,19.03-.68,12.49-.96,20.97-2.83,20.97-4.99s-8.06-3.93-20.03-4.91Z"/>
          </g>
        </g>
      </g>
    </g>
  </g>
</svg>