<?xml version="1.0" encoding="UTF-8"?>
<svg xmlns="http://www.w3.org/2000/svg" viewBox="0 0 214.23 209.17">
  <defs>
    <style>
      .cls-1 {
        fill: #a149ca;
      }

      .cls-1, .cls-2 {
        stroke-width: 0px;
      }

      .cls-2 {
        fill: #8c2db9;
      }

      .cls-3 {
        isolation: isolate;
      }

      .cls-4 {
        mix-blend-mode: multiply;
      }

      .cls-4, .cls-5 {
        opacity: .5;
      }

      .cls-5 {
        mix-blend-mode: screen;
      }
    </style>
  </defs>
  <g class="cls-3">
    <g id="Layer_2" data-name="Layer 2">
      <g id="BACKGROUND1">
        <g>
          <path class="cls-1" d="m10.39,150.92c-12.88-27.45-14.17-60.57-1.7-88.34C26.75,22.34,72.03-3.7,115.94.43c46.24,4.35,88.28,42.05,96.89,87.88,8.6,45.75-23.95,93.84-64.78,111.93-36.95,16.37-83.24,9.94-113.54-16.79-10.24-9.04-18.35-20.21-24.13-32.53Z"/>
          <g>
            <path class="cls-2" d="m154.48,37.36c6.39,0,6.41-9.94,0-9.94s-6.41,9.94,0,9.94h0Z"/>
            <path class="cls-2" d="m85.09,203c7.6,0,7.61-11.81,0-11.81s-7.61,11.81,0,11.81h0Z"/>
            <path class="cls-2" d="m172.19,39.75c9.47,0,9.49-14.72,0-14.72s-9.49,14.72,0,14.72h0Z"/>
            <path class="cls-2" d="m153.66,72.58c8.93,0,8.94-13.87,0-13.87s-8.94,13.87,0,13.87h0Z"/>
            <path class="cls-2" d="m172.19,82.51c8.45,0,8.46-13.12,0-13.12s-8.46,13.12,0,13.12h0Z"/>
            <path class="cls-2" d="m110.98,130.8c8.45,0,8.46-13.12,0-13.12s-8.46,13.12,0,13.12h0Z"/>
            <path class="cls-2" d="m186.64,69.87c7.54,0,7.55-11.72,0-11.72s-7.55,11.72,0,11.72h0Z"/>
            <path class="cls-2" d="m189.09,86.17c9.23,0,9.25-14.34,0-14.34s-9.24,14.34,0,14.34h0Z"/>
            <path class="cls-2" d="m141.61,98.22s-.02.09-.03.13c-.37,1.38-.37,2.77,0,4.15.37,1.32,1.04,2.47,2.01,3.45,1.53,1.4,3.41,2.29,5.52,2.29,2,0,4.1-.87,5.52-2.29.97-.97,1.64-2.12,2.01-3.45.37-1.38.37-2.77,0-4.15,0-.04-.02-.09-.03-.13-.26-.62-.52-1.24-.78-1.86-.49-.91-1.16-1.63-2-2.18-.49-.48-1.06-.82-1.72-1-.93-.49-1.93-.71-3-.67-.69.09-1.38.19-2.07.28-.62.26-1.24.52-1.86.78-.91.49-1.63,1.16-2.18,2-.69.75-1.15,1.63-1.39,2.65h0Z"/>
            <path class="cls-2" d="m114.4,106.2s-.02.09-.03.13c-.37,1.38-.37,2.77,0,4.15.37,1.32,1.04,2.47,2.01,3.44,1.53,1.4,3.41,2.29,5.52,2.29,2,0,4.11-.87,5.52-2.29.97-.97,1.64-2.12,2.01-3.44.37-1.38.37-2.77,0-4.15,0-.04-.02-.09-.03-.13-.26-.62-.52-1.24-.78-1.86-.49-.91-1.16-1.63-2-2.18-.49-.48-1.06-.82-1.72-1-.93-.49-1.93-.71-3-.67-.69.09-1.38.19-2.07.28-.62.26-1.24.52-1.86.78-.91.49-1.63,1.16-2.18,2-.69.75-1.15,1.63-1.39,2.65h0Z"/>
            <path class="cls-2" d="m168.19,148.78c9.47,0,9.49-14.72,0-14.72s-9.49,14.72,0,14.72h0Z"/>
            <path class="cls-2" d="m188.27,120.92c9.05,0,9.06-14.06,0-14.06s-9.06,14.06,0,14.06h0Z"/>
            <path class="cls-2" d="m198.98,110.76c.03.11.06.21.09.32.66,2.32,2.48,4.17,4.81,4.81,2.37.65,4.97-.04,6.7-1.77,1.74-1.74,2.42-4.33,1.77-6.7-.64-2.33-2.5-4.15-4.81-4.81-.11-.03-.21-.06-.32-.09-2.29-.65-4.84.04-6.52,1.72-1.68,1.68-2.38,4.23-1.72,6.52h0Z"/>
            <path class="cls-2" d="m102.97,167.2c5.13,0,5.14-7.97,0-7.97s-5.14,7.97,0,7.97h0Z"/>
            <path class="cls-2" d="m109.78,183.23c8.57,0,8.58-13.31,0-13.31s-8.58,13.31,0,13.31h0Z"/>
            <path class="cls-2" d="m34.61,166.45c8.57,0,8.58-13.31,0-13.31s-8.58,13.31,0,13.31h0Z"/>
            <path class="cls-2" d="m134.04,159.65c8.38,0,8.4-13.03,0-13.03s-8.4,13.03,0,13.03h0Z"/>
            <path class="cls-2" d="m116.05,203.65c8.45,0,8.46-13.13,0-13.13s-8.46,13.13,0,13.13h0Z"/>
            <path class="cls-2" d="m138.67,194.21c8.57,0,8.58-13.31,0-13.31s-8.58,13.31,0,13.31h0Z"/>
            <path class="cls-2" d="m59.91,178.63c8.26,0,8.28-12.84,0-12.84s-8.28,12.84,0,12.84h0Z"/>
            <path class="cls-2" d="m59.36,160.15c1.84,0,3.76-.8,5.06-2.1.7-.65,1.19-1.42,1.48-2.3.45-.85.65-1.77.62-2.76-.08-1.85-.69-3.77-2.1-5.06-1.4-1.29-3.12-2.1-5.06-2.1-1.83,0-3.76.8-5.06,2.1-.7.65-1.19,1.42-1.48,2.3-.45.85-.65,1.77-.62,2.76.08,1.85.69,3.77,2.1,5.06,1.4,1.29,3.12,2.1,5.06,2.1h0Z"/>
            <path class="cls-2" d="m85.09,154.11c10.56,0,10.57-16.41,0-16.41s-10.57,16.41,0,16.41h0Z"/>
            <path class="cls-2" d="m30.19,136.96c9.29,0,9.3-14.44,0-14.44s-9.31,14.44,0,14.44h0Z"/>
            <path class="cls-2" d="m46.55,120.01c1.85,0,3.79-.81,5.1-2.11.7-.65,1.2-1.43,1.49-2.32.45-.86.66-1.79.62-2.78-.08-1.87-.7-3.8-2.11-5.1-1.41-1.3-3.15-2.11-5.1-2.11-1.85,0-3.8.81-5.1,2.11-.7.65-1.2,1.43-1.49,2.32-.45.86-.66,1.79-.62,2.78.08,1.87.7,3.8,2.12,5.1,1.41,1.3,3.15,2.11,5.1,2.11h0Z"/>
            <path class="cls-2" d="m11.67,111.92c9.05,0,9.06-14.06,0-14.06s-9.06,14.06,0,14.06h0Z"/>
            <path class="cls-2" d="m28.25,103.86c.04.07.08.13.12.2,1.32,2.19,3.66,3.58,6.23,3.58s4.92-1.39,6.23-3.58c.04-.07.08-.13.12-.2,1.35-2.25,1.32-5.18,0-7.43-1.31-2.24-3.76-3.64-6.35-3.64s-5.04,1.41-6.36,3.64c-1.32,2.25-1.35,5.18,0,7.43h0Z"/>
            <path class="cls-2" d="m56.6,34.81c.11-.03.21-.06.32-.09,2.43-.69,4.37-2.6,5.04-5.04.68-2.48-.04-5.2-1.86-7.02-1.82-1.82-4.54-2.54-7.02-1.86-2.44.67-4.35,2.61-5.04,5.04-.03.11-.06.21-.09.32-.68,2.41.05,5.08,1.81,6.84,1.76,1.76,4.43,2.49,6.84,1.81h0Z"/>
            <path class="cls-2" d="m72.44,25.94c9.23,0,9.25-14.34,0-14.34s-9.24,14.34,0,14.34h0Z"/>
            <path class="cls-2" d="m73.67,50.54c1.89,0,3.88-.82,5.22-2.16.72-.67,1.23-1.46,1.53-2.38.46-.88.67-1.83.64-2.84-.09-1.91-.71-3.89-2.16-5.22-1.44-1.33-3.22-2.16-5.22-2.16-1.89,0-3.88.82-5.22,2.16-.72.67-1.23,1.46-1.53,2.38-.46.88-.67,1.83-.64,2.84.08,1.91.71,3.89,2.16,5.22,1.44,1.33,3.22,2.16,5.22,2.16h0Z"/>
            <path class="cls-2" d="m84.11,20.12c.03.08.06.17.09.25.24.56.47,1.12.71,1.68.44.82,1.05,1.48,1.81,1.97.44.44.96.74,1.55.9.84.44,1.74.64,2.71.61,1.25-.06,2.44-.38,3.55-.96.82-.44,1.48-1.05,1.97-1.81.62-.68,1.04-1.48,1.26-2.39.03-.08.06-.17.09-.25.34-1.26.34-2.53,0-3.79-.34-1.21-.95-2.25-1.83-3.14-1.39-1.28-3.11-2.09-5.04-2.09-1.83,0-3.75.79-5.04,2.09-.88.89-1.49,1.94-1.83,3.14-.34,1.26-.34,2.53,0,3.79h0Z"/>
            <path class="cls-2" d="m116.05,35.14c10.2,0,10.21-15.84,0-15.84s-10.21,15.84,0,15.84h0Z"/>
            <path class="cls-2" d="m30.19,68.51c7.84,0,7.85-12.19,0-12.19s-7.86,12.19,0,12.19h0Z"/>
            <path class="cls-2" d="m98.22,68.96c.04.07.08.13.12.2,1.22,2.03,3.4,3.32,5.79,3.32s4.56-1.29,5.79-3.32c.04-.07.08-.13.12-.2,1.26-2.09,1.22-4.82,0-6.91-1.22-2.08-3.5-3.39-5.91-3.39s-4.69,1.31-5.91,3.39c-1.22,2.09-1.26,4.82,0,6.91h0Z"/>
            <path class="cls-2" d="m78.19,78.18c8.2,0,8.22-12.75,0-12.75s-8.22,12.75,0,12.75h0Z"/>
            <path class="cls-2" d="m104.13,106.66c8.2,0,8.22-12.75,0-12.75s-8.22,12.75,0,12.75h0Z"/>
          </g>
          <g class="cls-4">
            <path class="cls-1" d="m212.84,88.31c-3.48-18.5-12.41-35.68-24.86-49.87,6.65,13.88,10.6,29,10.25,44.51-.46,20.52-8.79,40.06-22.95,54.86-16.27,16.99-38.63,26.89-61.5,31.18-25.47,4.77-52.88,3.9-77.09-5.95-11.01-4.48-20.84-10.86-29.15-18.79.88,2.26,1.82,4.48,2.85,6.67,5.78,12.32,13.89,23.49,24.13,32.53,30.3,26.74,76.59,33.16,113.54,16.79,40.83-18.09,73.38-66.17,64.78-111.93Z"/>
          </g>
          <g class="cls-5">
            <path class="cls-1" d="m17.05,79.41c24.03,19.09,62.7,24.15,86.95,2.68,14.96-13.24,20.57-33.85,19.51-53.29-.52-9.53-2.58-19.17-6.13-28.2-.48-.05-.95-.12-1.43-.17C72.03-3.7,26.75,22.34,8.69,62.58c-.88,1.96-1.69,3.96-2.43,5.97,3.13,3.99,6.75,7.65,10.8,10.86Z"/>
          </g>
          <g class="cls-5">
            <path class="cls-1" d="m138.42,27.23c.39,7.95,3.46,16.02,11.08,19.59,8.51,3.98,18.82,2.19,26.29-3.13,3.42-2.43,6.36-5.47,8.88-8.85-11.97-12.53-26.76-22.42-42.91-28.41-2.38,6.66-3.68,13.81-3.34,20.8Z"/>
          </g>
        </g>
      </g>
    </g>
  </g>
</svg>