<?xml version="1.0" encoding="UTF-8"?>
<svg xmlns="http://www.w3.org/2000/svg" viewBox="0 0 94.2 68.16">
  <defs>
    <style>
      .cls-1 {
        fill: #dd2951;
      }

      .cls-1, .cls-2, .cls-3, .cls-4, .cls-5, .cls-6, .cls-7 {
        stroke-width: 0px;
      }

      .cls-2 {
        fill: #ffda35;
      }

      .cls-8 {
        isolation: isolate;
      }

      .cls-3 {
        fill: #fff56e;
      }

      .cls-4 {
        fill: #ff3712;
      }

      .cls-5 {
        mix-blend-mode: screen;
        opacity: .5;
      }

      .cls-5, .cls-6 {
        fill: #c4eeff;
      }

      .cls-7 {
        fill: #ff6a12;
      }
    </style>
  </defs>
  <g class="cls-8">
    <g id="Layer_2" data-name="Layer 2">
      <g id="BACKGROUND2">
        <g>
          <g>
            <path class="cls-3" d="m65.85,39.49c-3.36,1.51-5.71,4.25-6.32,7.93-.4,2.4-.09,4.71.91,6.91,2.98,6.57,9.47,10.96,16.26,12.89,3.27.93,6.73,1.24,10.08.6.5-.09.61-.78.2-1.05-2.49-1.63-4.69-3.72-6.6-6.01,4.26,1.74,8.69,3.16,13.22,3.88.52.08.76-.61.46-.96-2.94-3.49-5.7-6.98-9.19-9.83,2.89.79,5.66,1.96,8.17,3.63.38.25,1.05-.11.88-.6-2.05-5.98-6.84-11.21-12.11-14.59-4.63-2.97-10.63-4.96-15.98-2.79Z"/>
            <path class="cls-2" d="m75.4,42.28c-3.18-1.91-7.12-2.77-10.66-1.4-3,1.33-4.78,3.79-4.86,7.09-.05,2.37,1.24,4.66,2.71,6.44,3.53,4.3,10.09,6.69,15.55,5.31.5-.13.61-.75.2-1.05-1.44-1.06-2.78-2.31-3.9-3.73,2.46,1.17,4.91,2.27,7.64,2.74.54.09.72-.61.46-.96-1.57-2.13-3.31-3.99-5.29-5.66,1.69.4,3.34.94,4.78,1.95.52.36,1.01-.25.84-.75-1.45-4.04-3.72-7.73-7.47-9.99Z"/>
          </g>
          <g>
            <path class="cls-1" d="m26.71,35.24l22.26,14.53s-9.79,6.9,10.66,16.33c-21.22,1.41-38.08-10.63-32.92-30.86Z"/>
            <path class="cls-1" d="m39.53,15.61l22.26,14.53s2.38-11.74,19.24,3.19c-7.25-20-25.05-30.59-41.5-17.73Z"/>
          </g>
          <path class="cls-7" d="m23.67.1c-3.34-.42-12.29.59-17.24,1.21-2.14.27-4.06,1.47-5.24,3.27h0C.02,6.39-.31,8.62.3,10.69c1.42,4.77,4.1,13.38,5.83,16.27,6.79,11.38,27.95,17.5,48.88,25.59,0,0,2.55.37,7.83-7.73,5.28-8.09,3.93-10.28,3.93-10.28C51.07,18.74,36.81,1.74,23.67.1Z"/>
          <path class="cls-4" d="m50.17,50.71c1.61.6,3.22,1.22,4.84,1.84,0,0,2.55.37,7.83-7.73,5.28-8.09,3.93-10.28,3.93-10.28-1.21-1.22-2.41-2.44-3.6-3.67,0,0,1.15,2.95-4.33,11.33-5.48,8.39-8.66,8.5-8.66,8.5Z"/>
          <path class="cls-4" d="m6.43,1.31c-2.14.27-4.06,1.47-5.24,3.27h0C.02,6.39-.31,8.62.3,10.69c1.42,4.77,4.1,13.38,5.83,16.27,0,0,4.7-2.93,10.33-11.56C22.1,6.77,23.67.1,23.67.1c-3.34-.42-12.29.59-17.24,1.21Z"/>
          <g>
            <path class="cls-1" d="m10.14,26.97c-.36-.23-.84-.13-1.08.23-.24.36-.13.84.23,1.08.36.23.84.13,1.08-.23.24-.36.13-.84-.23-1.08Z"/>
            <path class="cls-1" d="m19.66,15.71c-.36-.23-.84-.13-1.08.23-.23.36-.13.84.23,1.08.36.23.84.13,1.08-.23.23-.36.13-.84-.23-1.08Z"/>
            <path class="cls-1" d="m14.76,22.26c-.36-.24-.84-.13-1.08.23-.24.36-.13.84.23,1.08.36.24.84.13,1.08-.23s.13-.84-.23-1.08Z"/>
            <path class="cls-1" d="m25.3,3.76c-.36-.23-.46-.72-.23-1.08.23-.36.72-.46,1.08-.23.36.23.46.72.23,1.08-.23.36-.72.46-1.08.23Z"/>
            <path class="cls-1" d="m22.84,9.89c-.36-.24-.46-.72-.23-1.08.23-.36.72-.46,1.08-.23.36.23.46.72.23,1.08-.23.36-.72.46-1.08.23Z"/>
          </g>
          <g>
            <path class="cls-1" d="m37.21,13.94c5.48,3.58,7.02,10.92,3.45,16.41-3.58,5.48-10.92,7.02-16.41,3.45-5.48-3.58-7.02-10.92-3.45-16.41,3.58-5.48,10.92-7.02,16.41-3.45Z"/>
            <path class="cls-6" d="m35.62,16.38c4.13,2.7,5.3,8.24,2.6,12.38-2.7,4.14-8.24,5.3-12.38,2.6-4.14-2.7-5.3-8.24-2.6-12.38,2.7-4.14,8.24-5.3,12.38-2.6Z"/>
            <path class="cls-5" d="m33.33,32.43c-.17-.79-.35-1.59-.54-2.38-1.25-5-2.98-9.86-4.65-14.74-.83.25-1.64.63-2.37,1.12,1.96,5.4,4.02,10.81,5.53,16.36.69-.04,1.37-.17,2.03-.37Z"/>
            <path class="cls-5" d="m38.51,28.28c-1.5-4.13-2.77-8.34-4.05-12.54-.92-.42-1.88-.68-2.84-.77,1.53,5.32,3.1,10.62,4.64,15.93.75-.59,1.42-1.3,1.97-2.15.1-.16.2-.32.29-.48Z"/>
            <g>
              <path class="cls-4" d="m22.48,17.55c.36.24.46.72.23,1.08-.23.36-.72.46-1.08.23-.36-.23-.46-.72-.23-1.08.23-.36.72-.46,1.08-.23Z"/>
              <path class="cls-4" d="m39.84,28.89c.36.24.46.72.23,1.08-.23.36-.72.46-1.08.23-.36-.23-.46-.72-.23-1.08.24-.36.72-.46,1.08-.23Z"/>
              <path class="cls-4" d="m35.75,14.76c-.23.36-.13.84.23,1.08.36.23.84.13,1.08-.23.23-.36.13-.84-.23-1.08-.36-.23-.84-.13-1.08.23Z"/>
              <path class="cls-4" d="m24.41,32.13c-.23.36-.13.84.23,1.08.36.23.84.13,1.08-.23.23-.36.13-.84-.23-1.08-.36-.24-.84-.13-1.08.23Z"/>
              <path class="cls-4" d="m27.84,13.88c.09.42.5.69.92.6.42-.09.69-.5.6-.92-.09-.42-.5-.69-.92-.6-.42.09-.69.5-.6.92Z"/>
              <path class="cls-4" d="m32.1,34.18c.09.42.5.69.92.6.42-.09.69-.5.6-.92-.09-.42-.5-.69-.92-.6-.42.09-.69.5-.6.92Z"/>
              <path class="cls-4" d="m20.43,25.24c.42-.09.83.18.92.6.09.42-.18.83-.6.92-.42.09-.83-.18-.92-.6-.09-.42.18-.83.6-.92Z"/>
              <path class="cls-4" d="m40.72,20.97c.42-.09.83.18.92.6s-.18.83-.6.92c-.42.09-.83-.18-.92-.6-.09-.42.18-.83.6-.92Z"/>
            </g>
          </g>
          <path class="cls-1" d="m76.63,53.12c1.43-2.2-24.15-18.09-31.61-22.66-1.12-.68-2.58-.35-3.29.74h0c-.74,1.13-.41,2.64.72,3.37,7.46,4.78,32.75,20.74,34.18,18.55Z"/>
        </g>
      </g>
    </g>
  </g>
</svg>