<?xml version="1.0" encoding="UTF-8"?>
<svg xmlns="http://www.w3.org/2000/svg" viewBox="0 0 66.68 82.94">
  <defs>
    <style>
      .cls-1 {
        fill: #dcdcdc;
      }

      .cls-1, .cls-2, .cls-3, .cls-4, .cls-5, .cls-6 {
        stroke-width: 0px;
      }

      .cls-7 {
        stroke: #71717b;
      }

      .cls-7, .cls-8 {
        fill: none;
        stroke-miterlimit: 10;
        stroke-width: 1.01px;
      }

      .cls-9 {
        isolation: isolate;
      }

      .cls-2 {
        fill: #71717b;
      }

      .cls-3, .cls-10 {
        mix-blend-mode: multiply;
        opacity: .1;
      }

      .cls-3, .cls-5 {
        fill: #231052;
      }

      .cls-4 {
        fill: #f3f2ed;
      }

      .cls-6 {
        fill: #db1604;
      }

      .cls-8 {
        stroke: #db1604;
      }
    </style>
  </defs>
  <g class="cls-9">
    <g id="Layer_2" data-name="Layer 2">
      <g id="Capa_1" data-name="Capa 1">
        <g>
          <path class="cls-4" d="m48.89,40.55l-28.25-17.53c-2.46-1.53-5.69-.77-7.21,1.69l-4.95,7.97c-1.53,2.46-.77,5.69,1.69,7.22l28.25,17.53,10.47-16.88Z"/>
          <path class="cls-3" d="m11.88,27.39c1.53-2.46,4.76-3.21,7.21-1.69l28.17,17.48,1.63-2.63-28.25-17.53c-2.46-1.53-5.69-.77-7.21,1.69l-4.95,7.97c-.17.28-.31.57-.42.86l3.82-6.16Z"/>
          <polygon class="cls-1" points="43.51 49.22 43.51 49.22 38.42 57.43 48.44 59.32 51.6 54.24 51.6 54.24 54.75 49.16 48.89 40.55 43.51 49.22"/>
          <rect class="cls-6" x="46.92" y="53.52" width="11.94" height="3.06" transform="translate(-21.78 70.96) rotate(-58.17)"/>
          <polygon class="cls-1" points="64.48 52.25 57.35 50.78 54.35 55.61 54.2 55.85 51.04 60.93 55.53 66.67 60 59.47 59.85 59.36 60 59.46 64.48 52.25"/>
          <g class="cls-10">
            <g>
              <polygon class="cls-5" points="41.89 51.85 41.89 51.85 47.28 43.18 53.08 51.71 55.72 53.41 55.73 53.41 62.85 54.87 64.48 52.25 57.35 50.78 57.34 50.79 54.7 49.09 48.89 40.55 43.51 49.22 43.51 49.22 38.42 57.43 38.43 57.43 41.89 51.85"/>
              <polygon class="cls-5" points="58.23 61.99 58.37 62.09 58.38 62.08 58.23 61.99"/>
            </g>
          </g>
          <path class="cls-6" d="m25.18,23.6c.62.39.82,1.21.43,1.83l-11.11,17.9c-.39.62-1.21.81-1.83.43h0c-.62-.39-.82-1.21-.43-1.83l11.11-17.9c.39-.62,1.21-.82,1.83-.43h0Z"/>
          <path class="cls-3" d="m25.18,23.6c-.43-.27-.94-.24-1.35,0,.12.03.24.06.35.13.62.39.82,1.21.43,1.83l-11.11,17.9c-.12.19-.29.33-.48.44.55.15,1.16-.05,1.48-.56l11.11-17.9c.39-.62.19-1.44-.43-1.83Z"/>
          <g>
            <g>
              <path class="cls-8" d="m32.75,59.15c.23.14.32.42.2.62l-13.96,22.49c-.12.19-.41.24-.64.09L.76,71.44c-.23-.14-.33-.42-.2-.61l13.96-22.49c.12-.2.41-.24.64-.09l17.58,10.91Z"/>
              <g>
                <g>
                  <line class="cls-8" x1="3.65" y1="73.23" x2="18.05" y2="50.02"/>
                  <line class="cls-8" x1="7.3" y1="75.49" x2="21.7" y2="52.3"/>
                  <line class="cls-8" x1="10.96" y1="77.76" x2="25.36" y2="54.56"/>
                  <line class="cls-8" x1="14.61" y1="80.03" x2="29.01" y2="56.83"/>
                </g>
                <g>
                  <line class="cls-8" x1="2.79" y1="67.23" x2="21.22" y2="78.67"/>
                  <line class="cls-8" x1="5.18" y1="63.37" x2="23.61" y2="74.81"/>
                  <line class="cls-8" x1="7.58" y1="59.51" x2="26.01" y2="70.95"/>
                  <line class="cls-8" x1="9.98" y1="55.65" x2="28.41" y2="67.09"/>
                  <line class="cls-8" x1="12.37" y1="51.79" x2="30.8" y2="63.23"/>
                </g>
              </g>
            </g>
            <line class="cls-8" x1="23.13" y1="53.18" x2="25.48" y2="49.39"/>
          </g>
          <g>
            <g>
              <path class="cls-8" d="m47.92,34.71c.23.14.52.1.64-.09l13.96-22.5c.12-.19.03-.47-.2-.61L44.73.59c-.23-.14-.52-.1-.64.09l-13.96,22.5c-.12.2-.03.47.2.62l17.58,10.91Z"/>
              <g>
                <g>
                  <line class="cls-8" x1="47.62" y1="2.38" x2="33.22" y2="25.58"/>
                  <line class="cls-8" x1="51.27" y1="4.65" x2="36.88" y2="27.85"/>
                  <line class="cls-8" x1="54.93" y1="6.92" x2="40.53" y2="30.12"/>
                  <line class="cls-8" x1="58.59" y1="9.19" x2="44.18" y2="32.39"/>
                </g>
                <g>
                  <line class="cls-8" x1="41.87" y1="4.27" x2="60.3" y2="15.71"/>
                  <line class="cls-8" x1="39.47" y1="8.13" x2="57.9" y2="19.57"/>
                  <line class="cls-8" x1="37.07" y1="11.99" x2="55.5" y2="23.43"/>
                  <line class="cls-8" x1="34.68" y1="15.86" x2="53.11" y2="27.29"/>
                  <line class="cls-8" x1="32.28" y1="19.72" x2="50.71" y2="31.15"/>
                </g>
              </g>
            </g>
            <line class="cls-8" x1="38.3" y1="28.74" x2="35.95" y2="32.52"/>
          </g>
          <line class="cls-7" x1="60" y1="59.46" x2="65.49" y2="62.86"/>
          <path class="cls-6" d="m65.89,61.1c.79.49,1.03,1.53.54,2.32-.49.79-1.53,1.03-2.32.54-.79-.49-1.03-1.53-.54-2.32.49-.79,1.53-1.03,2.32-.54Z"/>
          <path class="cls-3" d="m65.89,61.1c-.42-.26-.9-.31-1.34-.19.1.04.19.08.28.14.79.49,1.03,1.53.54,2.32-.23.37-.59.62-.98.73.74.29,1.61.02,2.04-.68.49-.79.25-1.83-.54-2.32Z"/>
          <path class="cls-2" d="m28.96,47.68c.27.17.35.51.18.78h0c-.17.27-.52.35-.78.18l-9.65-5.99c-.27-.17-.35-.52-.18-.78h0c.17-.27.51-.35.78-.18l9.65,5.99Z"/>
        </g>
      </g>
    </g>
  </g>
</svg>