<?xml version="1.0" encoding="UTF-8"?>
<svg id="Layer_2" data-name="Layer 2" xmlns="http://www.w3.org/2000/svg" viewBox="0 0 50.51 31.36">
  <defs>
    <style>
      .cls-1 {
        fill: #00d989;
      }

      .cls-1, .cls-2, .cls-3, .cls-4 {
        stroke-width: 0px;
      }

      .cls-2 {
        fill: #e5f8ff;
      }

      .cls-3 {
        fill: #0eec9b;
      }

      .cls-4 {
        fill: #00b270;
      }
    </style>
  </defs>
  <g id="BACKGROUND2">
    <g>
      <path class="cls-2" d="m35.15,9.29s-1.49,3.66-10.4,6.97c-8.91,3.31-12.43,1.51-12.43,1.51-2.34-6.3-.75-14.23,6.67-16.99,7.42-2.76,13.81,2.2,16.15,8.51Z"/>
      <path class="cls-1" d="m49.31,7.15S38.18-.1,21.04,6.27C3.9,12.64.2,25.4.2,25.4c1.73,4.65,13.71,3.23,27.27-1.81,13.56-5.04,23.56-11.79,21.84-16.44Z"/>
      <path class="cls-4" d="m49.31,7.15c-1.73-4.65-14.12-4.33-27.68.71C8.07,12.9-1.53,20.75.2,25.4l.99,2.67L50.3,9.82l-.99-2.67Z"/>
      <path class="cls-1" d="m50.3,9.82c-1.73-4.65-14.3-4.82-27.87.22C8.88,15.08-.53,23.43,1.19,28.07c1.73,4.65,14.12,4.33,27.68-.71,13.56-5.04,23.15-12.89,21.43-17.54Z"/>
      <path class="cls-3" d="m28.51,26.42c-.32.12-.68-.04-.79-.36-.12-.32.04-.67.35-.78h.02c.32-.12.67.04.79.35.12.32-.04.67-.36.79Zm5.5-2.35c-.29.11-.63-.02-.76-.31-.15-.3-.02-.67.29-.82l.26.55-.26-.55c.3-.14.67-.03.82.27.15.3.03.66-.27.82,0,0-.02.01-.03.01-.02,0-.03.02-.05.02Zm-11.21,4.16s-.05.02-.07.02c-.33.08-.66-.12-.75-.44-.08-.32.1-.65.42-.74,0,0,.03,0,.03,0,.33-.08.66.12.74.45.07.3-.09.61-.38.72Zm16.44-7.11c-.27.1-.57,0-.73-.25-.18-.29-.1-.66.19-.84l.33.52-.32-.52c.28-.19.66-.12.85.16.19.28.12.66-.16.85,0,0-.03.02-.03.02-.04.02-.08.04-.12.06Zm-22.32,8.28s-.09.03-.14.03c-.33.04-.64-.2-.69-.53-.04-.33.18-.64.51-.68,0,0,.03,0,.03,0,.34-.04.64.2.68.54.03.29-.13.55-.39.65Zm26.99-12.05c-.21.08-.47.04-.64-.13-.24-.23-.26-.61-.03-.85,0,0,.02-.02.02-.02.24-.24.62-.24.87,0,.24.24.24.62,0,.87-.07.07-.14.12-.23.15ZM10.93,29.59c-.08.03-.17.04-.26.04,0,0-.03,0-.03,0-.34-.04-.58-.34-.54-.67.04-.34.34-.58.67-.54l-.07.61.07-.61c.33.03.58.33.55.66-.02.24-.18.44-.39.52ZM46.08,12.09c-.32.12-.67-.04-.79-.36,0,0,0-.02,0-.02,0,0,0,0,0-.01v-.02c-.12-.32.04-.67.36-.79.32-.12.67.04.79.36,0,0,0,.01,0,.02,0,.01,0,.02.01.03.12.32-.04.67-.36.79ZM5.86,26.99s-.01,0-.02,0c-.32.11-.67-.06-.78-.38-.12-.32.04-.67.36-.79.32-.12.67.04.79.36,0,0,0,.03.01.03.11.31-.06.66-.37.77ZM40.99,9.45c-.09.03-.18.05-.28.03l.07-.61-.07.61c-.33-.03-.58-.33-.55-.66.03-.33.32-.58.66-.55,0,0,.03,0,.03,0,.34.04.58.34.54.67-.03.24-.19.43-.4.51ZM8.01,21.71c-.22.08-.47.03-.64-.14-.24-.24-.24-.63,0-.87.24-.24.62-.25.87-.02.24.23.26.61.03.85,0,0-.02.02-.02.02-.06.07-.14.11-.22.14Zm4.65-3.76c-.26.1-.55,0-.72-.23-.19-.28-.12-.66.16-.85,0,0,.03-.02.03-.02.29-.18.66-.1.84.19.18.29.1.66-.19.84l-.33-.52.32.52s-.09.05-.13.07Zm22.35-8.31s-.08.03-.13.03l-.09-.61.08.61s-.03,0-.03,0c-.34.04-.64-.2-.68-.54-.04-.34.2-.64.54-.68.33-.05.64.19.69.52.04.29-.13.56-.39.66Zm-5.88,1.17s-.04.01-.05.02c0,0-.03,0-.03,0-.33.08-.66-.12-.74-.45-.08-.33.12-.66.45-.74.33-.08.66.12.75.44.08.31-.08.62-.37.72Zm-11.24,4.18c-.29.11-.62-.02-.76-.3-.15-.3-.03-.66.27-.82,0,0,.02-.01.03-.01.3-.14.67-.02.82.29.15.3.02.67-.29.82l-.26-.55.26.55s-.04.02-.06.02Zm5.52-2.36h0c-.32.12-.67-.04-.79-.36-.12-.32.04-.67.36-.79.32-.12.68.04.79.36.12.32-.04.67-.35.78Z"/>
      <path class="cls-4" d="m40.46,13.48c-1.03-2.79-8.46-2.59-16.59.43-8.13,3.02-13.87,7.72-12.84,10.51s8.46,2.59,16.59-.43c8.13-3.02,13.87-7.73,12.84-10.51Z"/>
    </g>
  </g>
</svg>