<?xml version="1.0" encoding="UTF-8"?>
<svg id="Layer_2" data-name="Layer 2" xmlns="http://www.w3.org/2000/svg" viewBox="0 0 25.12 25.93">
  <defs>
    <style>
      .cls-1 {
        fill: #fff896;
        stroke-width: 0px;
      }
    </style>
  </defs>
  <g id="BACKGROUND2">
    <path class="cls-1" d="m24.53,10.2c-2.79-.26-6.09-.12-8.46-1.81-2.25-2.13-3.58-4.73-3.95-7.81-.09-.75-1.19-.8-1.21,0-.06,2.97-.46,6.53-2.12,9.1-1.52,2.35-4.63,3.14-7.22,3.69-.32.02-.65.05-.97.09-.32.04-.6.25-.6.6,0,.33.28.6.6.6.37,0,.73-.04,1.09-.1,6.42-.11,12.35,4.23,13.17,10.79.09.75,1.24.8,1.21,0-.14-3.37-.41-7.81,2.22-10.32,1.7-1.62,4.16-2.91,6.39-3.65.67-.22.51-1.12-.16-1.19Z"/>
  </g>
</svg>